<?xml version="1.0" encoding="utf-8"?>
<!-- Generator: Adobe Illustrator 16.0.0, SVG Export Plug-In . SVG Version: 6.00 Build 0)  -->
<!DOCTYPE svg PUBLIC "-//W3C//DTD SVG 1.1//EN" "http://www.w3.org/Graphics/SVG/1.1/DTD/svg11.dtd">
<svg version="1.1" id="Layer_1" xmlns="http://www.w3.org/2000/svg" xmlns:xlink="http://www.w3.org/1999/xlink" x="0px" y="0px"
	 width="479.5px" height="500px" viewBox="0 0 479.5 500" enable-background="new 0 0 479.5 500" xml:space="preserve">
<g>
	<path fill="#EF7057" d="M75.36,180.445C43.84,252.247,62.448,338.396,125.896,388.88c75.766,60.28,186.74,46.86,247.865-29.967
		c55.204-69.38,50.857-166.741-6.303-229.36c-1.737,2.8-3.205,5.957-4.399,9.708c-3.554,11.175-5.973,17.832-15.475,25.31
		c-6.437,5.063-13.993,8.224-22.261,7.138c-9.211-1.209-17.332-6.345-26.623-7.53c-8.397-1.072-21.809-0.181-24.956,9.244
		c-2.855,8.55-4.388,16.507-9.505,24.196c-5.992,9.003-14.971,16.404-25.382,19.47c-9.675,2.85-19.758-1.242-28.466-5.108
		c-12.514-5.556-23.148-10.465-37.241-9.525c-12.413,0.829-24.333,7.094-36.713,8.863C110.377,215.042,90.813,199.956,75.36,180.445
		z"/>
	<path fill="#EF7057" d="M349.712,138.294c2.013-6.671,4.417-12.899,8.042-18.504c-3.366-3.143-6.831-6.211-10.498-9.126
		C271.489,50.383,160.515,63.798,99.39,140.623c-6.798,8.541-12.636,17.526-17.642,26.799c8.729,12.202,19.259,23.456,32.988,28.895
		c22.293,8.832,44.938-7.963,67.65-7.005c11.546,0.488,21.883,5.461,32.16,10.275c14.427,6.761,24.098,6.707,35.78-5.315
		c11.315-11.646,7.408-30.974,22.94-39.011c8.794-4.552,20.217-5.308,29.815-3.562c8.659,1.576,17.001,6.891,25.76,7.264
		C340.256,159.453,346.967,147.376,349.712,138.294z"/>
	<path fill="#C95E49" d="M81.754,173.957c-2.312,4.284-4.449,8.625-6.383,13.028c15.443,19.505,35.007,34.588,61.07,30.868
		c12.381-1.769,24.301-8.037,36.713-8.863c14.091-0.941,24.726,3.967,37.241,9.524c8.707,3.866,18.79,7.958,28.465,5.108
		c10.411-3.065,19.39-10.467,25.381-19.47c5.115-7.689,6.652-15.647,9.506-24.196c3.15-9.425,16.561-10.316,24.957-9.245
		c9.288,1.187,17.41,6.319,26.621,7.531c8.265,1.086,15.825-2.075,22.263-7.138c9.501-7.477,11.918-14.134,15.475-25.31
		c1.191-3.751,2.659-6.908,4.399-9.708c-3.074-3.366-6.329-6.61-9.708-9.767c-3.624,5.602-6.028,11.833-8.042,18.503
		c-2.745,9.08-9.456,21.157-20.87,20.669c-8.761-0.374-17.103-5.689-25.76-7.264c-9.597-1.746-21.021-0.99-29.815,3.561
		c-15.532,8.037-11.624,27.366-22.94,39.012c-11.682,12.023-21.353,12.073-35.78,5.315c-10.276-4.815-20.612-9.788-32.16-10.275
		c-22.715-0.962-45.357,15.836-67.65,7.005C101.007,197.405,90.475,186.151,81.754,173.957z"/>
	<path fill="#FFFFFF" d="M81.754,167.43c-2.312,4.283-4.449,8.624-6.383,13.027c15.443,19.506,35.007,34.589,61.07,30.868
		c12.381-1.769,24.301-8.036,36.713-8.863c14.091-0.941,24.726,3.967,37.241,9.524c8.707,3.866,18.79,7.959,28.465,5.11
		c10.411-3.067,19.39-10.468,25.381-19.471c5.115-7.69,6.652-15.648,9.506-24.196c3.15-9.426,16.561-10.317,24.957-9.245
		c9.288,1.186,17.41,6.319,26.621,7.53c8.265,1.086,15.825-2.075,22.263-7.138c9.501-7.476,11.918-14.134,15.475-25.309
		c1.191-3.752,2.659-6.909,4.399-9.709c-3.074-3.366-6.329-6.61-9.708-9.767c-3.624,5.604-6.028,11.834-8.042,18.504
		c-2.745,9.079-9.456,21.156-20.87,20.668c-8.761-0.373-17.103-5.689-25.76-7.264c-9.597-1.746-21.021-0.99-29.815,3.562
		c-15.532,8.037-11.624,27.365-22.94,39.011c-11.682,12.023-21.353,12.073-35.78,5.315c-10.276-4.814-20.612-9.786-32.16-10.275
		c-22.715-0.961-45.357,15.837-67.65,7.005C101.007,190.878,90.475,179.624,81.754,167.43z"/>
	<path fill="#C95E49" d="M123.204,392.271c-77.519-61.679-89.72-175.787-27.198-254.365c35.05-44.051,87.206-69.316,143.096-69.316
		c40.746,0,79.086,13.37,110.876,38.664c37.56,29.885,61.072,72.808,66.202,120.864c5.127,48.034-8.724,95.444-39.005,133.501
		c-35.049,44.051-87.204,69.315-143.094,69.315C193.334,430.935,154.994,417.564,123.204,392.271z M102.817,143.322
		C43.283,218.147,54.86,326.77,128.622,385.459c30.234,24.057,66.701,36.772,105.459,36.772c53.223,0,102.897-24.065,136.285-66.031
		c28.847-36.255,42.044-81.412,37.161-127.159c-4.881-45.722-27.243-86.555-62.967-114.979
		c-30.235-24.055-66.7-36.771-105.458-36.771C185.879,77.291,136.205,101.359,102.817,143.322z"/>
	<path fill="#A34C3B" d="M245.395,372.75c-2.604-2.253-4.403-5.324-4.813-8.219l3.23-0.458c0.3,2.104,1.723,4.483,3.718,6.21
		c1.257,1.085,3.821,2.839,6.927,2.404c3.098-0.439,5.08-2.845,5.986-4.237c1.436-2.213,2.143-4.893,1.845-6.993l3.232-0.458
		c0.41,2.891-0.464,6.342-2.341,9.229c-2.085,3.212-5.019,5.23-8.261,5.69c-0.479,0.069-0.958,0.104-1.439,0.104
		C250.686,376.021,247.862,374.888,245.395,372.75z"/>
	<path fill="#A34C3B" d="M322.937,284.979c1.686,11.201-2.727,21.155-9.856,22.229c-7.129,1.07-14.276-7.143-15.962-18.346
		c-1.687-11.207,2.726-21.158,9.856-22.229C314.104,265.557,321.25,273.771,322.937,284.979z"/>
	
		<ellipse transform="matrix(0.1488 0.9889 -0.9889 0.1488 455.5431 79.4111)" fill="#A34C3B" cx="181.645" cy="304.312" rx="20.515" ry="13.056"/>
	<circle fill="#FF856E" cx="164.287" cy="338.133" r="8.702"/>
	<circle fill="#FF856E" cx="336.165" cy="314.2" r="8.704"/>
</g>
</svg>
